{"asset":{"version":"2.0","generator":"Unity 2022.3.59f1 glTFast 6.13.0"},"nodes":[{"name":"J_Sec_L_Bust2","translation":[0.0261088274,0.00624513626,0.0507561266]},{"name":"J_Sec_L_Bust1","children":[0],"translation":[0.0537684076,-0.00725638866,0.068979755]},{"name":"J_Sec_R_Bust2","translation":[-0.0261088274,0.00624513626,0.0507561266]},{"name":"J_Sec_R_Bust1","children":[2],"translation":[-0.0537684076,-0.00725638866,0.068979755]},{"name":"J_Adj_L_FaceEye","translation":[0.01627041,0.0646528,0.0218558721]},{"name":"J_Adj_R_FaceEye","translation":[-0.0162704,0.0646528,0.02185588]},{"name":"J_Sec_Hair3_01","translation":[0.0207809024,-0.0340520144,0.009916991]},{"name":"J_Sec_Hair2_01","children":[6],"translation":[0.0102037862,-0.04066825,0.00216093659]},{"name":"J_Sec_Hair1_01","children":[7],"translation":[-0.08547772,0.05814922,0.0583235547]},{"name":"J_Sec_Hair3_02","translation":[-0.0208495259,-0.0309023857,0.0100425929]},{"name":"J_Sec_Hair2_02","children":[9],"translation":[-0.009017974,-0.03816843,0.00130468607]},{"name":"J_Sec_Hair1_02","children":[10],"translation":[0.08436063,0.05249989,0.0590541437]},{"name":"J_Sec_Hair3_03","translation":[-0.0125387376,-0.03556788,-0.007012062]},{"name":"J_Sec_Hair2_03","children":[12],"translation":[-0.00454966258,-0.038422823,0.002642028]},{"name":"J_Sec_Hair1_03","children":[13],"translation":[-0.000587240269,0.137137771,0.108627155]},{"name":"J_Sec_Hair3_04","translation":[-0.0017523393,-0.04011941,-0.005207032]},{"name":"J_Sec_Hair2_04","children":[15],"translation":[-0.0110964216,-0.03888583,-0.00213633478]},{"name":"J_Sec_Hair1_04","children":[16],"translation":[-0.0533637367,0.142067313,0.08859255]},{"name":"J_Sec_Hair3_05","translation":[-0.0179359652,-0.04056716,0.005721204]},{"name":"J_Sec_Hair2_05","children":[18],"translation":[0.00519437343,-0.0460085869,-0.000883415341]},{"name":"J_Sec_Hair1_05","children":[19],"translation":[0.07392865,0.127452731,0.07400758]},{"name":"J_Sec_Hair3_06","translation":[0.0221632272,-0.03813052,0.008985002]},{"name":"J_Sec_Hair2_06","children":[21],"translation":[0.01062955,-0.04420483,0.000910639763]},{"name":"J_Sec_Hair1_06","children":[22],"translation":[-0.103689805,0.06196153,0.0239749886]},{"name":"J_Sec_Hair3_07","translation":[-0.0220195055,-0.03836763,0.008364219]},{"name":"J_Sec_Hair2_07","children":[24],"translation":[-0.0106130093,-0.0439462662,0.000972379]},{"name":"J_Sec_Hair1_07","children":[25],"translation":[0.103762947,0.0619307756,0.0239484869]},{"name":"J_Sec_Hair5_08","translation":[-0.0153136337,-0.09724617,0.007062167]},{"name":"J_Sec_Hair4_08","children":[27],"translation":[0.00749179348,-0.09682536,-0.0323820859]},{"name":"J_Sec_Hair3_08","children":[28],"translation":[0.00487603527,-0.100373745,-0.019163914]},{"name":"J_Sec_Hair2_08","children":[29],"translation":[-0.0063994946,-0.101545572,0.00356139243]},{"name":"J_Sec_Hair1_08","children":[30],"translation":[-0.00373985083,0.06477797,-0.09310963]},{"name":"J_Sec_Hair5_09","translation":[0.00383684039,-0.09835887,0.00588347]},{"name":"J_Sec_Hair4_09","children":[32],"translation":[0.038735196,-0.09141219,-0.0237347558]},{"name":"J_Sec_Hair3_09","children":[33],"translation":[0.025778614,-0.09607363,-0.0205903426]},{"name":"J_Sec_Hair2_09","children":[34],"translation":[0.00562243164,-0.09969556,-0.02207131]},{"name":"J_Sec_Hair1_09","children":[35],"translation":[0.0999564,0.09508824,-0.03972424]},{"name":"J_Sec_Hair5_10","translation":[-0.00551553071,-0.103260994,0.005070135]},{"name":"J_Sec_Hair4_10","children":[37],"translation":[-0.0433576554,-0.095476985,-0.0230619386]},{"name":"J_Sec_Hair3_10","children":[38],"translation":[-0.0203582346,-0.102074742,-0.024275668]},{"name":"J_Sec_Hair2_10","children":[39],"translation":[-0.005580209,-0.10472095,-0.0234892219]},{"name":"J_Sec_Hair1_10","children":[40],"translation":[-0.09911806,0.115081429,-0.0344806165]},{"name":"J_Bip_C_Head","children":[4,5,8,11,14,17,20,23,26,31,36,41],"translation":[1.57650851E-10,0.07317436,0.00914859]},{"name":"J_Bip_C_Neck","children":[42],"translation":[-9.82368563E-17,0.132288337,-0.0383563265]},{"name":"J_Bip_L_Index3","translation":[0.0204591751,-0.0005913973,-0.0007889904]},{"name":"J_Bip_L_Index2","children":[44],"translation":[0.033262372,0,-0.000646218657]},{"name":"J_Bip_L_Index1","children":[45],"translation":[0.06548262,0.007380247,0.0196567662]},{"name":"J_Bip_L_Little3","translation":[0.0181219578,0,0]},{"name":"J_Bip_L_Little2","children":[47],"translation":[0.0314426422,1.1920929E-07,7.450581E-09]},{"name":"J_Bip_L_Little1","children":[48],"translation":[0.0611006021,0.007380247,-0.0291756764]},{"name":"J_Bip_L_Middle3","translation":[0.0228610039,1.1920929E-07,-7.450581E-09]},{"name":"J_Bip_L_Middle2","children":[50],"translation":[0.03705728,-1.1920929E-07,7.450581E-09]},{"name":"J_Bip_L_Middle1","children":[51],"translation":[0.06637478,0.00738036633,0.00204698]},{"name":"J_Bip_L_Ring3","translation":[0.0198378563,0,-7.450581E-09]},{"name":"J_Bip_L_Ring2","children":[53],"translation":[0.03437531,0,1.49011612E-08]},{"name":"J_Bip_L_Ring1","children":[54],"translation":[0.065618515,0.00738036633,-0.0135881081]},{"name":"J_Bip_L_Thumb3","translation":[0.0225636959,-0.0009701252,0.01764986]},{"name":"J_Bip_L_Thumb2","children":[56],"translation":[0.0353739262,-0.00206255913,0.0302625261]},{"name":"J_Bip_L_Thumb1","children":[57],"translation":[0.00352394581,-0.0100083351,0.01596335]},{"name":"J_Bip_L_Hand","children":[46,49,52,55,58],"translation":[0.214684963,2.38418579E-06,0.000375963748]},{"name":"J_Bip_L_LowerArm","children":[59],"translation":[0.219852746,0,0]},{"name":"J_Bip_L_UpperArm","children":[60],"translation":[0.08616048,-0.0122603178,7.450581E-09]},{"name":"J_Bip_L_Shoulder","children":[61],"translation":[0.0223954022,0.105686307,-0.0299689248]},{"name":"J_Bip_R_Index3","translation":[-0.0204591751,-0.0005913973,-0.0007889904]},{"name":"J_Bip_R_Index2","children":[63],"translation":[-0.033262372,0,-0.000646218657]},{"name":"J_Bip_R_Index1","children":[64],"translation":[-0.06548262,0.007380247,0.0196567662]},{"name":"J_Bip_R_Little3","translation":[-0.0181219578,0,0]},{"name":"J_Bip_R_Little2","children":[66],"translation":[-0.0314426422,1.1920929E-07,7.450581E-09]},{"name":"J_Bip_R_Little1","children":[67],"translation":[-0.0611006021,0.007380247,-0.0291756764]},{"name":"J_Bip_R_Middle3","translation":[-0.0228610039,1.1920929E-07,-7.450581E-09]},{"name":"J_Bip_R_Middle2","children":[69],"translation":[-0.03705728,-1.1920929E-07,7.450581E-09]},{"name":"J_Bip_R_Middle1","children":[70],"translation":[-0.06637478,0.00738036633,0.00204698]},{"name":"J_Bip_R_Ring3","translation":[-0.0198378563,0,-7.450581E-09]},{"name":"J_Bip_R_Ring2","children":[72],"translation":[-0.03437531,0,1.49011612E-08]},{"name":"J_Bip_R_Ring1","children":[73],"translation":[-0.065618515,0.00738036633,-0.0135881081]},{"name":"J_Bip_R_Thumb3","translation":[-0.0225636959,-0.0009701252,0.01764986]},{"name":"J_Bip_R_Thumb2","children":[75],"translation":[-0.0353739262,-0.00206255913,0.0302625261]},{"name":"J_Bip_R_Thumb1","children":[76],"translation":[-0.00352394581,-0.0100083351,0.01596335]},{"name":"J_Bip_R_Hand","children":[65,68,71,74,77],"translation":[-0.214684963,2.38418579E-06,0.000375963748]},{"name":"J_Bip_R_LowerArm","children":[78],"translation":[-0.219852746,0,0]},{"name":"J_Bip_R_UpperArm","children":[79],"translation":[-0.08616048,-0.0122603178,7.450581E-09]},{"name":"J_Bip_R_Shoulder","children":[80],"translation":[-0.0223954022,0.105686307,-0.0299689248]},{"name":"J_Bip_C_UpperChest","children":[1,3,43,62,81],"translation":[-3.13020662E-17,0.107643962,-0.014646641]},{"name":"J_Bip_C_Chest","children":[82],"translation":[2.16863662E-17,0.113013029,0.0030498486]},{"name":"J_Bip_C_Spine","children":[83],"translation":[-6.402521E-32,0.0520709157,0.0125174271]},{"name":"J_Sec_L_SkirtBack_end_01","translation":[0.008591309,-0.08446741,-0.013962768]},{"name":"J_Sec_L_SkirtBack_01","children":[85],"translation":[-0.002086468,-0.03889835,-0.116632111]},{"name":"J_Sec_L_SkirtFront_end_01","translation":[0.008389145,-0.0926246047,-0.0006013289]},{"name":"J_Sec_L_SkirtFront_01","children":[87],"translation":[-0.008381687,-0.0563075542,0.122346491]},{"name":"J_Sec_L_SkirtSide_end_01","translation":[0.0261397287,-0.09160304,-0.0108014653]},{"name":"J_Sec_L_SkirtSide_01","children":[89],"translation":[0.101453759,-0.03876418,0.00358406827]},{"name":"J_Sec_L_CoatSkirtBack_end_01","translation":[0.011519812,-0.150276363,-0.02360779]},{"name":"J_Sec_L_CoatSkirtBack_01","children":[91],"translation":[0.0271553546,-0.137722969,-0.197480321]},{"name":"J_Sec_L_CoatSkirtFront_end_01","translation":[0.0106974244,-0.150798976,0.00776994228]},{"name":"J_Sec_L_CoatSkirtFront_01","children":[93],"translation":[0.0184595361,-0.16020757,0.146036848]},{"name":"J_Sec_L_CoatSkirtSide2_end_01","translation":[0.0179817677,-0.150658607,-0.006858832]},{"name":"J_Sec_L_CoatSkirtSide2_01","children":[95],"translation":[0.0231489539,-0.163742065,-0.007224072]},{"name":"J_Sec_L_CoatSkirtSide1_01","children":[96],"translation":[0.144295439,0.0214899778,-0.000381667167]},{"name":"J_Bip_L_ToeBase","translation":[0,-0.0630551,0.1106893]},{"name":"J_Bip_L_Foot","children":[98],"translation":[0,-0.414744735,-0.0249376446]},{"name":"J_Bip_L_LowerLeg","children":[92,94,97,99],"translation":[-1.49011612E-08,-0.352905929,-0.00738526229]},{"name":"J_Bip_L_UpperLeg","children":[86,88,90,100],"translation":[0.07715603,-0.03977418,-0.00365623739]},{"name":"J_Sec_R_SkirtBack_end_01","translation":[-0.006591521,-0.08458668,-0.0143247619]},{"name":"J_Sec_R_SkirtBack_01","children":[102],"translation":[0.00208643079,-0.03889835,-0.1166321]},{"name":"J_Sec_R_SkirtFront_end_01","translation":[-0.00813175,-0.09264821,-0.00050701946]},{"name":"J_Sec_R_SkirtFront_01","children":[104],"translation":[0.008602969,-0.0563288331,0.122427769]},{"name":"J_Sec_R_SkirtSide_end_01","translation":[-0.0261392817,-0.0916028,-0.0108014653]},{"name":"J_Sec_R_SkirtSide_01","children":[106],"translation":[-0.101453759,-0.03876406,0.00358406361]},{"name":"J_Sec_R_CoatSkirtBack_end_01","translation":[-0.011519812,-0.150276363,-0.02360779]},{"name":"J_Sec_R_CoatSkirtBack_01","children":[108],"translation":[-0.0271553323,-0.137722731,-0.197480321]},{"name":"J_Sec_R_CoatSkirtFront_end_01","translation":[-0.0106974244,-0.150799036,0.00776992738]},{"name":"J_Sec_R_CoatSkirtFront_01","children":[110],"translation":[-0.0184595063,-0.160207272,0.146036834]},{"name":"J_Sec_R_CoatSkirtSide2_end_01","translation":[-0.0179816782,-0.150658667,-0.006858832]},{"name":"J_Sec_R_CoatSkirtSide2_01","children":[112],"translation":[-0.0231489837,-0.163742125,-0.007224068]},{"name":"J_Sec_R_CoatSkirtSide1_01","children":[113],"translation":[-0.144295409,0.0214903355,-0.000381678343]},{"name":"J_Bip_R_ToeBase","translation":[0,-0.0630551,0.1106893]},{"name":"J_Bip_R_Foot","children":[115],"translation":[0,-0.414744735,-0.0249376446]},{"name":"J_Bip_R_LowerLeg","children":[109,111,114,116],"translation":[1.49011612E-08,-0.352905929,-0.00738526229]},{"name":"J_Bip_R_UpperLeg","children":[103,105,107,117],"translation":[-0.07715603,-0.03977418,-0.00365623739]},{"name":"J_Bip_C_Hips","children":[84,101,118],"translation":[0,0.915115535,0.00357606518]},{"name":"Root","children":[119]},{"name":"Face","mesh":0,"skin":0},{"name":"Body","mesh":1,"skin":1},{"name":"Hair","mesh":2,"skin":2},{"name":"secondary"},{"name":"FemaleStudent","children":[120,121,122,123,124]}],"buffers":[{"uri":"FemaleStudent.bin","byteLength":3165980}],"bufferViews":[{"buffer":0,"byteLength":7744},{"buffer":0,"byteLength":7744,"byteOffset":7744},{"buffer":0,"byteLength":7744,"byteOffset":15488},{"buffer":0,"byteLength":73740,"byteOffset":23232,"target":34963},{"buffer":0,"byteLength":107568,"byteOffset":96972,"target":34963},{"buffer":0,"byteLength":291600,"byteOffset":204540,"target":34963},{"buffer":0,"byteLength":145280,"byteOffset":496140,"byteStride":40,"target":34962},{"buffer":0,"byteLength":58112,"byteOffset":641420,"byteStride":16,"target":34962},{"buffer":0,"byteLength":87168,"byteOffset":699532,"byteStride":24,"target":34962},{"buffer":0,"byteLength":247720,"byteOffset":786700,"byteStride":40,"target":34962},{"buffer":0,"byteLength":99088,"byteOffset":1034420,"byteStride":16,"target":34962},{"buffer":0,"byteLength":148632,"byteOffset":1133508,"byteStride":24,"target":34962},{"buffer":0,"byteLength":941920,"byteOffset":1282140,"byteStride":40,"target":34962},{"buffer":0,"byteLength":376768,"byteOffset":2224060,"byteStride":16,"target":34962},{"buffer":0,"byteLength":565152,"byteOffset":2600828,"byteStride":24,"target":34962}],"accessors":[{"bufferView":6,"componentType":5126,"count":3632,"type":"VEC3","max":[0.108824193,1.59256411,0.0892623961],"min":[-0.1088243,1.35922718,-0.05592251]},{"bufferView":6,"componentType":5126,"count":3632,"type":"VEC3","byteOffset":12},{"bufferView":6,"componentType":5126,"count":3632,"type":"VEC4","byteOffset":24},{"bufferView":7,"componentType":5126,"count":3632,"type":"VEC2"},{"bufferView":7,"componentType":5126,"count":3632,"type":"VEC2","byteOffset":8},{"bufferView":8,"componentType":5126,"count":3632,"type":"VEC4"},{"bufferView":8,"componentType":5123,"count":3632,"type":"VEC4","byteOffset":16},{"bufferView":0,"componentType":5126,"count":121,"type":"MAT4"},{"bufferView":9,"componentType":5126,"count":6193,"type":"VEC3","max":[0.694476843,1.60528648,0.150722951],"min":[-0.694476843,0,-0.164845914]},{"bufferView":9,"componentType":5126,"count":6193,"type":"VEC3","byteOffset":12},{"bufferView":9,"componentType":5126,"count":6193,"type":"VEC4","byteOffset":24},{"bufferView":10,"componentType":5126,"count":6193,"type":"VEC2"},{"bufferView":10,"componentType":5126,"count":6193,"type":"VEC2","byteOffset":8},{"bufferView":11,"componentType":5126,"count":6193,"type":"VEC4"},{"bufferView":11,"componentType":5123,"count":6193,"type":"VEC4","byteOffset":16},{"bufferView":1,"componentType":5126,"count":121,"type":"MAT4"},{"bufferView":12,"componentType":5126,"count":23548,"type":"VEC3","max":[0.203570679,1.620197,0.09605971],"min":[-0.202128187,1.06045175,-0.233452082]},{"bufferView":12,"componentType":5126,"count":23548,"type":"VEC3","byteOffset":12},{"bufferView":12,"componentType":5126,"count":23548,"type":"VEC4","byteOffset":24},{"bufferView":13,"componentType":5126,"count":23548,"type":"VEC2"},{"bufferView":13,"componentType":5126,"count":23548,"type":"VEC2","byteOffset":8},{"bufferView":14,"componentType":5126,"count":23548,"type":"VEC4"},{"bufferView":14,"componentType":5123,"count":23548,"type":"VEC4","byteOffset":16},{"bufferView":2,"componentType":5126,"count":121,"type":"MAT4"},{"bufferView":3,"componentType":5125,"count":3336,"type":"SCALAR"},{"bufferView":3,"componentType":5125,"count":894,"type":"SCALAR","byteOffset":13344},{"bufferView":3,"componentType":5125,"count":465,"type":"SCALAR","byteOffset":16920},{"bufferView":3,"componentType":5125,"count":11058,"type":"SCALAR","byteOffset":18780},{"bufferView":3,"componentType":5125,"count":1584,"type":"SCALAR","byteOffset":63012},{"bufferView":3,"componentType":5125,"count":162,"type":"SCALAR","byteOffset":69348},{"bufferView":3,"componentType":5125,"count":270,"type":"SCALAR","byteOffset":69996},{"bufferView":3,"componentType":5125,"count":666,"type":"SCALAR","byteOffset":71076},{"bufferView":4,"componentType":5125,"count":17982,"type":"SCALAR"},{"bufferView":4,"componentType":5125,"count":2322,"type":"SCALAR","byteOffset":71928},{"bufferView":4,"componentType":5125,"count":3456,"type":"SCALAR","byteOffset":81216},{"bufferView":4,"componentType":5125,"count":1788,"type":"SCALAR","byteOffset":95040},{"bufferView":4,"componentType":5125,"count":1344,"type":"SCALAR","byteOffset":102192},{"bufferView":5,"componentType":5125,"count":72900,"type":"SCALAR"}],"images":[{"name":"_01.jpg","uri":"_01.jpg","mimeType":"image/jpeg"},{"name":"_02.png","uri":"_02.png","mimeType":"image/png"},{"name":"_03.png","uri":"_03.png","mimeType":"image/png"},{"name":"_04.jpg","uri":"_04.jpg","mimeType":"image/jpeg"},{"name":"_06.jpg","uri":"_06.jpg","mimeType":"image/jpeg"},{"name":"_07.png","uri":"_07.png","mimeType":"image/png"},{"name":"_08.png","uri":"_08.png","mimeType":"image/png"},{"name":"_09.png","uri":"_09.png","mimeType":"image/png"},{"name":"_10.png","uri":"_10.png","mimeType":"image/png"},{"name":"_12.png","uri":"_12.png","mimeType":"image/png"},{"name":"_13.png","uri":"_13.png","mimeType":"image/png"},{"name":"_14.jpg","uri":"_14.jpg","mimeType":"image/jpeg"},{"name":"_15.png","uri":"_15.png","mimeType":"image/png"},{"name":"_16.jpg","uri":"_16.jpg","mimeType":"image/jpeg"}],"materials":[{"name":"N00_000_00_FaceMouth_00_FACE (Instance)","pbrMetallicRoughness":{"metallicFactor":0,"roughnessFactor":0.5,"baseColorTexture":{"index":0}}},{"name":"N00_000_00_EyeIris_00_EYE (Instance)","pbrMetallicRoughness":{"metallicFactor":0,"roughnessFactor":0.5,"baseColorTexture":{"index":1}}},{"name":"N00_000_00_EyeHighlight_00_EYE (Instance)","pbrMetallicRoughness":{"metallicFactor":0,"roughnessFactor":0.5,"baseColorTexture":{"index":2}}},{"name":"N00_000_00_Face_00_SKIN (Instance)","pbrMetallicRoughness":{"metallicFactor":0,"roughnessFactor":0.5,"baseColorTexture":{"index":3}}},{"name":"N00_000_00_EyeWhite_00_EYE (Instance)","pbrMetallicRoughness":{"metallicFactor":0,"roughnessFactor":0.5,"baseColorTexture":{"index":4}}},{"name":"N00_000_00_FaceBrow_00_FACE (Instance)","pbrMetallicRoughness":{"metallicFactor":0,"roughnessFactor":0.5,"baseColorTexture":{"index":5}}},{"name":"N00_000_00_FaceEyelash_00_FACE (Instance)","pbrMetallicRoughness":{"metallicFactor":0,"roughnessFactor":0.5,"baseColorTexture":{"index":6}}},{"name":"N00_000_00_FaceEyeline_00_FACE (Instance)","pbrMetallicRoughness":{"metallicFactor":0,"roughnessFactor":0.5,"baseColorTexture":{"index":7}}},{"name":"N00_000_00_Body_00_SKIN (Instance)","pbrMetallicRoughness":{"metallicFactor":0,"roughnessFactor":0.5,"baseColorTexture":{"index":8}}},{"name":"N00_000_00_HairBack_00_HAIR (Instance)","pbrMetallicRoughness":{"metallicFactor":0,"roughnessFactor":0.5,"baseColorTexture":{"index":9}}},{"name":"N00_007_02_Tops_01_CLOTH (Instance)","pbrMetallicRoughness":{"metallicFactor":0,"roughnessFactor":0.5,"baseColorTexture":{"index":10}}},{"name":"N00_001_03_Bottoms_01_CLOTH (Instance)","pbrMetallicRoughness":{"metallicFactor":0,"roughnessFactor":0.5,"baseColorTexture":{"index":11}}},{"name":"N00_004_01_Shoes_01_CLOTH (Instance)","pbrMetallicRoughness":{"metallicFactor":0,"roughnessFactor":0.5,"baseColorTexture":{"index":12}}},{"name":"N00_000_Hair_00_HAIR (Instance)","pbrMetallicRoughness":{"metallicFactor":0,"roughnessFactor":0.5,"baseColorTexture":{"index":13}}}],"meshes":[{"name":"Face (merged).baked","primitives":[{"attributes":{"POSITION":0,"NORMAL":1,"TANGENT":2,"TEXCOORD_0":3,"TEXCOORD_1":4,"JOINTS_0":6,"WEIGHTS_0":5},"indices":24,"material":0},{"attributes":{"POSITION":0,"NORMAL":1,"TANGENT":2,"TEXCOORD_0":3,"TEXCOORD_1":4,"JOINTS_0":6,"WEIGHTS_0":5},"indices":25,"material":1},{"attributes":{"POSITION":0,"NORMAL":1,"TANGENT":2,"TEXCOORD_0":3,"TEXCOORD_1":4,"JOINTS_0":6,"WEIGHTS_0":5},"indices":26,"material":2},{"attributes":{"POSITION":0,"NORMAL":1,"TANGENT":2,"TEXCOORD_0":3,"TEXCOORD_1":4,"JOINTS_0":6,"WEIGHTS_0":5},"indices":27,"material":3},{"attributes":{"POSITION":0,"NORMAL":1,"TANGENT":2,"TEXCOORD_0":3,"TEXCOORD_1":4,"JOINTS_0":6,"WEIGHTS_0":5},"indices":28,"material":4},{"attributes":{"POSITION":0,"NORMAL":1,"TANGENT":2,"TEXCOORD_0":3,"TEXCOORD_1":4,"JOINTS_0":6,"WEIGHTS_0":5},"indices":29,"material":5},{"attributes":{"POSITION":0,"NORMAL":1,"TANGENT":2,"TEXCOORD_0":3,"TEXCOORD_1":4,"JOINTS_0":6,"WEIGHTS_0":5},"indices":30,"material":6},{"attributes":{"POSITION":0,"NORMAL":1,"TANGENT":2,"TEXCOORD_0":3,"TEXCOORD_1":4,"JOINTS_0":6,"WEIGHTS_0":5},"indices":31,"material":7}]},{"name":"Body (merged).baked","primitives":[{"attributes":{"POSITION":8,"NORMAL":9,"TANGENT":10,"TEXCOORD_0":11,"TEXCOORD_1":12,"JOINTS_0":14,"WEIGHTS_0":13},"indices":32,"material":8},{"attributes":{"POSITION":8,"NORMAL":9,"TANGENT":10,"TEXCOORD_0":11,"TEXCOORD_1":12,"JOINTS_0":14,"WEIGHTS_0":13},"indices":33,"material":9},{"attributes":{"POSITION":8,"NORMAL":9,"TANGENT":10,"TEXCOORD_0":11,"TEXCOORD_1":12,"JOINTS_0":14,"WEIGHTS_0":13},"indices":34,"material":10},{"attributes":{"POSITION":8,"NORMAL":9,"TANGENT":10,"TEXCOORD_0":11,"TEXCOORD_1":12,"JOINTS_0":14,"WEIGHTS_0":13},"indices":35,"material":11},{"attributes":{"POSITION":8,"NORMAL":9,"TANGENT":10,"TEXCOORD_0":11,"TEXCOORD_1":12,"JOINTS_0":14,"WEIGHTS_0":13},"indices":36,"material":12}]},{"name":"Hair001 (merged).baked","primitives":[{"attributes":{"POSITION":16,"NORMAL":17,"TANGENT":18,"TEXCOORD_0":19,"TEXCOORD_1":20,"JOINTS_0":22,"WEIGHTS_0":21},"indices":37,"material":13}]}],"scene":0,"scenes":[{"name":"FemaleStudent","nodes":[125]}],"skins":[{"inverseBindMatrices":7,"joints":[120,119,84,83,82,1,0,3,2,43,42,4,5,8,7,6,11,10,9,14,13,12,17,16,15,20,19,18,23,22,21,26,25,24,31,30,29,28,27,36,35,34,33,32,41,40,39,38,37,62,61,60,59,46,45,44,49,48,47,52,51,50,55,54,53,58,57,56,81,80,79,78,65,64,63,68,67,66,71,70,69,74,73,72,77,76,75,101,86,85,88,87,90,89,100,92,91,94,93,97,96,95,99,98,118,103,102,105,104,107,106,117,109,108,111,110,114,113,112,116,115]},{"inverseBindMatrices":15,"joints":[120,119,84,83,82,1,0,3,2,43,42,4,5,8,7,6,11,10,9,14,13,12,17,16,15,20,19,18,23,22,21,26,25,24,31,30,29,28,27,36,35,34,33,32,41,40,39,38,37,62,61,60,59,46,45,44,49,48,47,52,51,50,55,54,53,58,57,56,81,80,79,78,65,64,63,68,67,66,71,70,69,74,73,72,77,76,75,101,86,85,88,87,90,89,100,92,91,94,93,97,96,95,99,98,118,103,102,105,104,107,106,117,109,108,111,110,114,113,112,116,115]},{"inverseBindMatrices":23,"joints":[120,119,84,83,82,1,0,3,2,43,42,4,5,8,7,6,11,10,9,14,13,12,17,16,15,20,19,18,23,22,21,26,25,24,31,30,29,28,27,36,35,34,33,32,41,40,39,38,37,62,61,60,59,46,45,44,49,48,47,52,51,50,55,54,53,58,57,56,81,80,79,78,65,64,63,68,67,66,71,70,69,74,73,72,77,76,75,101,86,85,88,87,90,89,100,92,91,94,93,97,96,95,99,98,118,103,102,105,104,107,106,117,109,108,111,110,114,113,112,116,115]}],"textures":[{"source":0},{"source":1},{"source":2},{"source":3},{"source":4},{"source":5},{"source":6},{"source":7},{"source":8},{"source":9},{"source":10},{"source":11},{"source":12},{"source":13}]}